<svg width="775" height="145" viewBox="0 0 775 145" fill="none" xmlns="http://www.w3.org/2000/svg">
<path fill-rule="evenodd" clip-rule="evenodd" d="M614.341 0.226612C530.083 2.49732 470.381 7.91404 387.335 20.8218C319.026 31.4391 273.755 40.0661 196.459 57.1959C151.006 67.2683 133.204 71.9262 97.0484 83.2044C68.5724 92.0873 50.7773 97.29 33.924 101.66C8.84128 108.164 0 111.181 0 113.237C0 114.143 0.835646 114.363 1.55406 113.647C2.17715 113.026 5.58887 112.088 26.5427 106.78C44.0844 102.335 57.0357 98.7607 83.0923 91.1726C141.548 74.1502 146.962 72.8597 237.612 54.3439C366.142 28.0906 470.518 14.1535 570.696 9.86845C665.825 5.79916 744.16 7.46333 764.256 13.9797C767.577 15.0562 767.592 14.9637 763.81 16.705C755.01 20.758 735.283 25.4347 696.301 32.7091C651.784 41.0163 627.632 44.872 555.238 55.2299C500.112 63.1173 498.786 63.3322 425.982 76.2048C349.722 89.6886 316.139 96.1626 270.533 106.172C254.428 109.706 253.072 109.972 233.25 113.465C193.807 120.416 159.936 127.978 126.678 137.257C115.85 140.279 113.897 141.64 116.728 144.193C119.007 146.249 137.921 142.718 184.864 131.473C242.8 117.595 250.958 115.907 284.274 110.901C332.039 103.725 371.854 99.0732 405.155 96.7772C438.522 94.4766 494.318 91.5467 524.534 90.5087C541.409 89.9287 606.771 89.4729 610.03 89.9125L612.564 90.2541L610.202 90.8229C606.089 91.8142 533.186 105.911 501.13 111.914C491.093 113.794 476.6 116.411 468.924 117.73C443.901 122.031 390.217 132.107 380.751 134.279C374.838 135.637 372.765 138.396 375.563 141.185C377.47 143.084 390.26 143.249 418.038 141.731C424.651 141.37 436.825 140.774 445.091 140.408C453.358 140.042 465.712 139.267 472.547 138.685C479.381 138.102 489.622 137.419 495.306 137.167C500.989 136.914 508.151 136.557 511.222 136.373L516.804 136.038L511.866 135.971C505.402 135.883 490.19 135.195 477.298 134.407C462.178 133.483 429.064 133.692 413.746 134.807C412.014 134.933 411.405 134.864 411.887 134.596C412.825 134.072 451.846 126.795 470.212 123.719C525.713 114.422 620.596 95.9362 625.351 93.4934C629.57 91.3263 629.252 87.5343 624.693 85.6356C616.523 82.2332 541.159 82.8662 473.648 86.9047C467.861 87.2506 454.335 88.0223 443.588 88.6194C403.175 90.8649 363.458 94.1016 348.472 96.3719C347.528 96.5149 346.865 96.5153 347.001 96.3732C347.547 95.7996 452.121 77.3185 492.687 70.6267C501.859 69.1132 528.43 65.1684 551.732 61.8597C632.721 50.3607 651.421 47.3931 700.38 38.2692C760.834 27.003 777.259 21.3671 773.812 13.0718C770.942 6.1651 754.496 3.01865 708.754 0.625096C697.811 0.0523901 631.231 -0.228813 614.341 0.226612Z" fill="url(#paint0_linear_670_3992)"/>
<defs>
<linearGradient id="paint0_linear_670_3992" x1="667" y1="-155" x2="518" y2="156" gradientUnits="userSpaceOnUse">
<stop stop-color="white"/>
<stop offset="1" stop-color="white" stop-opacity="0.6"/>
</linearGradient>
</defs>
</svg>
