<svg width="328" height="177" viewBox="0 0 328 177" fill="none" xmlns="http://www.w3.org/2000/svg">
<path fill-rule="evenodd" clip-rule="evenodd" d="M277.867 0.277105C235.642 3.05376 205.724 9.67741 164.106 25.4612C129.875 38.4442 107.188 48.9934 68.4518 69.9399C45.674 82.2567 36.7529 87.9524 18.6341 101.744C4.36388 112.606 -4.55381 118.968 -12.9996 124.311C-25.5693 132.264 -30 135.954 -30 138.468C-30 139.576 -29.5812 139.845 -29.2212 138.969C-28.909 138.21 -27.1992 137.063 -16.6986 130.572C-7.90785 125.137 -1.41756 120.766 11.6403 111.487C40.9346 90.672 43.6473 89.0939 89.0753 66.4525C153.486 34.3496 205.792 17.3071 255.994 12.0673C303.667 7.09129 342.923 9.12627 352.994 17.0946C354.658 18.4109 354.665 18.2979 352.77 20.4271C348.36 25.3832 338.474 31.1019 318.939 39.9971C296.63 50.1553 284.527 54.8701 248.248 67.536C220.622 77.1807 219.958 77.4435 183.474 93.1843C145.257 109.673 128.428 117.589 105.573 129.829C97.5021 134.151 96.8227 134.475 86.8891 138.747C67.123 147.247 50.149 156.494 33.4826 167.84C28.0564 171.535 27.0777 173.2 28.4963 176.322C29.6383 178.836 39.1168 174.517 62.6415 160.767C91.6752 143.796 95.7631 141.733 112.459 135.612C136.396 126.837 156.348 121.148 173.037 118.341C189.758 115.527 217.719 111.945 232.861 110.675C241.318 109.966 274.073 109.409 275.706 109.946L276.976 110.364L275.792 111.06C273.731 112.272 237.197 129.51 221.133 136.85C216.103 139.149 208.84 142.349 204.993 143.962C192.453 149.221 165.55 161.542 160.807 164.199C157.844 165.858 156.805 169.232 158.207 172.643C159.162 174.966 165.572 175.167 179.493 173.311C182.807 172.869 188.907 172.141 193.05 171.693C197.192 171.246 203.384 170.297 206.809 169.585C210.233 168.874 215.366 168.038 218.214 167.729C221.062 167.421 224.651 166.984 226.19 166.759L228.987 166.349L226.513 166.268C223.274 166.16 215.65 165.319 209.189 164.355C201.613 163.225 185.018 163.48 177.341 164.844C176.474 164.998 176.169 164.914 176.41 164.585C176.88 163.945 196.435 155.047 205.639 151.285C233.452 139.917 281.001 117.312 283.384 114.325C285.498 111.675 285.339 107.038 283.054 104.716C278.96 100.556 241.192 101.33 207.36 106.268C204.461 106.691 197.682 107.635 192.297 108.365C172.044 111.111 152.141 115.069 144.631 117.845C144.157 118.02 143.826 118.02 143.894 117.847C144.167 117.145 196.573 94.5462 216.901 86.3633C221.498 84.5126 234.813 79.6889 246.491 75.643C287.077 61.5818 296.448 57.953 320.983 46.7961C351.279 33.0196 359.51 26.128 357.783 15.9844C356.344 7.53877 348.103 3.69125 325.18 0.764377C319.696 0.0640634 286.33 -0.279796 277.867 0.277105Z" fill="url(#paint0_linear_692_2283)"/>
<defs>
<linearGradient id="paint0_linear_692_2283" x1="304.256" y1="-189.536" x2="73.2852" y2="8.03447" gradientUnits="userSpaceOnUse">
<stop stop-color="white"/>
<stop offset="1" stop-color="white" stop-opacity="0.6"/>
</linearGradient>
</defs>
</svg>
