<svg width="68" height="56" viewBox="0 0 68 56" fill="none" xmlns="http://www.w3.org/2000/svg">
<ellipse cx="33.9993" cy="28" rx="28.3333" ry="28" fill="#F5F6FA" fill-opacity="0.2"/>
<path d="M53.3857 39.9468C52.7419 40.0708 40.2675 42.3036 33.9999 34.1911C29.0171 40.5863 20.1847 40.7871 14.7113 39.9716C-1.21278 35.5928 0.0140148 18.9459 0.0261612 18.7846C0.0444201 18.538 0.135452 18.3029 0.287247 18.1102C0.439041 17.9175 0.644465 17.7764 0.876415 17.7054C1.10726 17.6337 1.3537 17.6331 1.58488 17.7037C1.81606 17.7743 2.02171 17.913 2.17609 18.1024C2.21253 18.152 6.17228 23.0518 11.286 23.2378C14.1296 23.3615 16.904 21.9006 19.3998 19.157C22.4226 16.7029 29.4656 14.8346 33.9999 20.6949C35.5441 18.6858 37.7573 17.3261 40.2189 16.8743C43.1938 16.5372 46.1844 17.3516 48.5999 19.1568C51.0962 21.9003 53.8703 23.3617 56.7138 23.2379C61.8275 23.0518 65.7872 18.152 65.8237 18.1024C65.9789 17.9156 66.1845 17.7795 66.4149 17.7111C66.6453 17.6427 66.8903 17.645 67.1195 17.7177C67.3486 17.7904 67.5517 17.9303 67.7036 18.12C67.8555 18.3097 67.9494 18.5409 67.9736 18.7846C67.9857 18.9459 69.2125 35.5928 53.3857 39.9468Z" fill="#F5F6FA"/>
</svg>
