<svg width="32" height="32" viewBox="0 0 32 32" fill="none" xmlns="http://www.w3.org/2000/svg">
<path d="M28.6224 3.65355C24.6118 5.31435 7.41597 12.4372 2.66461 14.3787C-0.521947 15.6222 1.34333 16.7879 1.34333 16.7879C1.34333 16.7879 4.06333 17.7204 6.39485 18.4199C8.72637 19.1195 9.96989 18.3422 9.96989 18.3422L20.928 10.9588C24.8137 8.31659 23.8813 10.4926 22.9488 11.4251C20.928 13.4459 17.5862 16.6321 14.7885 19.1969C13.5449 20.2849 14.1667 21.2177 14.7107 21.6839C16.7315 23.3937 22.2493 26.891 22.5603 27.1243C24.2022 28.2865 27.4317 29.9598 27.9229 26.4247L29.8659 14.2231C30.4877 10.1041 31.1094 6.29579 31.1872 5.20779C31.4201 2.56555 28.6224 3.65355 28.6224 3.65355Z" fill="#F5F6FA"/>
</svg>
