<svg width="28" height="32" viewBox="0 0 28 32" fill="none" xmlns="http://www.w3.org/2000/svg">
<path d="M27.0536 7.02919C23.6947 7.02919 20.9621 4.29644 20.9621 0.9375C20.9621 0.41975 20.5423 0 20.0246 0H15.0037C14.4859 0 14.0662 0.41975 14.0662 0.9375V21.5229C14.0662 23.4976 12.4596 25.1041 10.4849 25.1041C8.51019 25.1041 6.90369 23.4976 6.90369 21.5229C6.90369 19.5482 8.51019 17.9416 10.4849 17.9416C11.0026 17.9416 11.4224 17.5219 11.4224 17.0041V11.9832C11.4224 11.4655 11.0026 11.0457 10.4849 11.0457C4.70781 11.0457 0.0078125 15.7458 0.0078125 21.5229C0.007875 27.3 4.70781 32 10.4849 32C16.2621 32 20.9621 27.3 20.9621 21.5229V12.4111C22.8281 13.4057 24.9042 13.9251 27.0537 13.9251C27.5714 13.9251 27.9912 13.5053 27.9912 12.9876V7.96669C27.9911 7.44894 27.5714 7.02919 27.0536 7.02919Z" fill="#858D9F"/>
</svg>
