<svg width="32" height="24" viewBox="0 0 32 24" fill="none" xmlns="http://www.w3.org/2000/svg">
<path d="M30.7527 2.67345C29.5976 1.30034 27.465 0.740234 23.3921 0.740234H8.60759C4.4415 0.740234 2.27272 1.33647 1.12196 2.79835C0 4.22369 0 6.32382 0 9.23045V14.7705C0 20.4016 1.3312 23.2606 8.60759 23.2606H23.3922C26.9242 23.2606 28.8813 22.7664 30.1475 21.5546C31.446 20.312 32 18.283 32 14.7705V9.23045C32 6.16516 31.9132 4.05265 30.7527 2.67345ZM20.5441 12.7653L13.8305 16.2741C13.6804 16.3525 13.5163 16.3914 13.3524 16.3914C13.1668 16.3914 12.9816 16.3415 12.8175 16.2422C12.5087 16.055 12.3201 15.7203 12.3201 15.3592V8.36418C12.3201 8.00372 12.5082 7.66927 12.8164 7.48201C13.1247 7.29476 13.5082 7.28196 13.8281 7.44816L20.5417 10.9343C20.8833 11.1116 21.0978 11.4643 21.0983 11.849C21.0987 12.234 20.8852 12.5872 20.5441 12.7653Z" fill="#858D9F"/>
</svg>
