<svg aria-hidden="true" style="position: absolute; width: 0; height: 0; overflow: hidden;" version="1.1" xmlns="http://www.w3.org/2000/svg" xmlns:xlink="http://www.w3.org/1999/xlink">
<defs>
<symbol id="icon-burger" viewBox="0 0 32 32">
<path fill="#575ff2" style="fill: var(--color1, #575ff2)" d="M30 14h-28c-1.105 0-2 0.895-2 2s0.895 2 2 2h28c1.105 0 2-0.895 2-2s-0.895-2-2-2z"></path>
<path fill="#575ff2" style="fill: var(--color1, #575ff2)" d="M2 8.667h28c1.105 0 2-0.895 2-2s-0.895-2-2-2h-28c-1.105 0-2 0.895-2 2s0.895 2 2 2z"></path>
<path fill="#575ff2" style="fill: var(--color1, #575ff2)" d="M30 23.333h-28c-1.105 0-2 0.895-2 2s0.895 2 2 2h28c1.105 0 2-0.896 2-2s-0.895-2-2-2z"></path>
</symbol>
<symbol id="icon-close" viewBox="0 0 32 32">
<path fill="#575ff2" style="fill: var(--color1, #575ff2)" d="M18.828 16l12.586-12.585c0.781-0.781 0.781-2.048 0-2.829s-2.048-0.781-2.829 0l-12.585 12.586-12.585-12.586c-0.781-0.781-2.048-0.781-2.829 0s-0.781 2.048 0 2.829l12.586 12.585-12.586 12.585c-0.781 0.781-0.781 2.048 0 2.829s2.048 0.781 2.829 0l12.585-12.586 12.585 12.586c0.781 0.781 2.048 0.781 2.829 0s0.781-2.048 0-2.829l-12.586-12.585z"></path>
</symbol>
<symbol id="icon-logo" viewBox="0 0 39 32">
<path fill="#575ff2" style="fill: var(--color1, #575ff2)" opacity="0.2" d="M35.274 16c0 8.682-7.122 15.719-15.906 15.719s-15.906-7.038-15.906-15.719c0-8.682 7.122-15.719 15.906-15.719s15.906 7.038 15.906 15.719z"></path>
<path fill="#575ff2" style="fill: var(--color1, #575ff2)" d="M30.252 22.707c-0.361 0.070-7.365 1.323-10.883-3.231-2.797 3.59-7.756 3.703-10.829 3.245-8.94-2.458-8.251-11.804-8.244-11.894 0.010-0.138 0.061-0.27 0.147-0.379s0.201-0.187 0.331-0.227c0.13-0.040 0.268-0.041 0.398-0.001s0.245 0.117 0.332 0.224c0.020 0.028 2.243 2.779 5.114 2.883 1.596 0.069 3.154-0.751 4.555-2.291 1.697-1.378 5.651-2.427 8.197 0.863 0.867-1.128 2.109-1.891 3.491-2.145 1.67-0.189 3.349 0.268 4.705 1.281 1.401 1.54 2.959 2.361 4.555 2.291 2.871-0.104 5.094-2.855 5.114-2.883 0.087-0.105 0.203-0.181 0.332-0.22s0.267-0.037 0.396 0.004c0.129 0.041 0.243 0.119 0.328 0.226s0.138 0.236 0.152 0.373c0.007 0.091 0.696 9.436-8.19 11.88z"></path>
</symbol>
<symbol id="icon-check" viewBox="0 0 38 32">
<path fill="#3fa8a8" style="fill: var(--color1, #3fa8a8)" d="M37.508 3.076c-1.188-1.19-3.117-1.189-4.307 0l-19.385 19.386-8.616-8.616c-1.19-1.19-3.118-1.19-4.308 0s-1.19 3.118 0 4.308l10.769 10.769c0.595 0.594 1.374 0.892 2.154 0.892s1.56-0.297 2.154-0.892l21.539-21.539c1.189-1.189 1.189-3.118 0-4.308z"></path>
</symbol>
<symbol id="icon-track" viewBox="0 0 32 32">
<path fill="#575ff2" style="fill: var(--color2, #575ff2)" d="M28.675 6.258c-0.128-1.673-1.537-2.96-3.201-3.089-2.561-0.257-6.147-0.386-8.964-0.386s-6.275 0.129-8.836 0.386c-0.896 0-1.537 0.386-2.177 1.030-0.512 0.515-0.896 1.287-0.896 2.059-0.128 2.059-0.384 4.891-0.384 7.079s0.256 5.020 0.384 7.079c0.128 1.673 1.537 2.96 3.201 3.089 2.561 0.257 6.146 0.386 8.964 0.386s6.403-0.258 8.964-0.386c1.665-0.129 2.945-1.416 3.201-3.089 0.256-2.059 0.384-4.891 0.384-7.079s-0.384-5.020-0.64-7.079zM22.4 10.763l-3.842 3.861c-0.384 0.386-1.024 0.386-1.409 0l-1.793-1.802-3.201 3.218c-0.256 0.129-0.384 0.257-0.64 0.257s-0.512-0.129-0.64-0.257c-0.384-0.386-0.384-1.030 0-1.416l3.842-3.861c0.384-0.386 1.024-0.386 1.409 0l1.793 1.802 3.201-3.218c0.384-0.386 1.024-0.386 1.409 0 0.256 0.515 0.256 1.030-0.128 1.416z"></path>
<path fill="#575ff2" style="fill: var(--color2, #575ff2)" d="M21.76 27.881h-10.244c-0.512 0-1.024-0.386-1.024-1.030s0.384-1.030 1.024-1.030h10.244c0.512 0 1.024 0.386 1.024 1.030s-0.512 1.030-1.024 1.030z"></path>
</symbol>
<symbol id="icon-acc" viewBox="0 0 32 32">
<path fill="#575ff2" style="fill: var(--color2, #575ff2)" d="M20.893 15.641c0.261 0.13 0.654 0.13 1.046 0.13 2.352 0 4.313-1.956 4.313-4.303s-1.96-4.303-4.313-4.303c-0.131 0-0.131 0-0.261 0 0.784 1.043 1.176 2.347 1.176 3.781 0 1.695-0.654 3.39-1.96 4.694z"></path>
<path fill="#575ff2" style="fill: var(--color2, #575ff2)" d="M23.638 17.466h-0.915c1.699 1.304 2.744 3.39 2.744 5.737 0 0.521-0.131 1.043-0.261 1.565 1.307-0.261 2.091-0.522 2.614-0.782s0.784-0.913 0.784-1.565c0.131-2.738-2.222-4.954-4.966-4.954z"></path>
<path fill="#575ff2" style="fill: var(--color2, #575ff2)" d="M10.176 15.771c0.392 0 0.653 0 1.046-0.13-1.176-1.304-1.96-2.868-1.96-4.824 0-1.434 0.392-2.738 1.176-3.781 0 0-0.131 0-0.261 0-2.352 0-4.313 1.956-4.313 4.303s1.83 4.433 4.313 4.433z"></path>
<path fill="#575ff2" style="fill: var(--color2, #575ff2)" d="M9.261 17.466h-0.784c-2.745 0-4.966 2.217-4.966 4.954 0 0.652 0.261 1.304 0.784 1.565s1.307 0.652 2.614 0.782c-0.131-0.522-0.261-1.043-0.261-1.565 0-2.216 0.915-4.303 2.614-5.737z"></path>
<path fill="#575ff2" style="fill: var(--color2, #575ff2)" d="M13.052 14.598c0.784 0.652 1.83 1.043 3.006 1.043s2.222-0.391 3.006-1.043c1.176-0.913 1.83-2.216 1.83-3.781 0-1.173-0.392-2.347-1.176-3.129-0.915-1.043-2.222-1.695-3.659-1.695s-2.875 0.652-3.659 1.695c-0.784 0.782-1.307 1.956-1.307 3.129 0 1.565 0.784 2.868 1.96 3.781z"></path>
<path fill="#575ff2" style="fill: var(--color2, #575ff2)" d="M18.671 17.727c-0.261 0-0.523 0-0.784 0h-3.921c-0.261 0-0.523 0-0.784 0-2.745 0.391-4.836 2.738-4.836 5.476 0 0.782 0.392 1.434 0.915 1.695 0.915 0.521 2.745 1.173 6.535 1.173s5.62-0.652 6.535-1.173c0.653-0.391 0.915-1.043 0.915-1.695 0.392-2.738-1.83-5.085-4.574-5.476z"></path>
</symbol>
<symbol id="icon-browser" viewBox="0 0 30 32">
<path fill="#575ff2" style="fill: var(--color2, #575ff2)" d="M9.823 1.030c-1.84 0.046-3.097 0.131-4.059 0.262-0.72 0.098-1.539 0.282-1.931 0.432-0.943 0.354-1.323 0.583-1.853 1.093-0.308 0.295-0.864 1.015-0.864 1.12 0 0.020-0.052 0.157-0.124 0.314-0.249 0.57-0.288 0.681-0.406 1.159-0.308 1.231-0.439 2.658-0.517 5.696-0.157 6.089-0.013 12.61 0.321 14.601 0.543 3.228 1.931 4.544 5.31 5.028 1.591 0.236 4.577 0.341 9.395 0.341 7.032 0 9.716-0.197 11.392-0.832 2.22-0.838 3.097-2.39 3.437-6.109 0.242-2.645 0.242-13.671 0-16.237-0.131-1.336-0.347-2.553-0.57-3.11-0.399-1.034-0.674-1.473-1.283-2.043-0.393-0.36-0.936-0.681-1.715-1.002-0.557-0.229-1.807-0.452-3.274-0.589-1.938-0.17-8.924-0.242-13.258-0.124zM15.231 8.127c0.773 0.105 0.845 0.118 1.434 0.295 0.38 0.118 0.648 0.223 1.277 0.511 0.412 0.19 1.113 0.727 1.558 1.192 0.943 1.008 1.565 2.527 1.722 4.19 0.072 0.812 0.072 2.619-0.007 3.391-0.281 2.972-1.866 5.041-4.491 5.86-1.218 0.386-1.794 0.439-4.773 0.439h-2.488l0.327-0.223c0.432-0.288 0.687-0.583 0.904-1.021 0.301-0.616 0.373-1.205 0.373-3.071 0-1.945 0.039-2.187 0.439-2.573 0.275-0.262 0.707-0.511 0.884-0.511 0.105 0 0.118-0.072 0.118-0.589s-0.013-0.589-0.118-0.589c-0.177 0-0.609-0.249-0.884-0.511-0.399-0.386-0.439-0.629-0.439-2.56 0-2.278-0.111-2.835-0.707-3.588-0.151-0.19-0.406-0.419-0.57-0.511-0.164-0.098-0.295-0.19-0.295-0.203s1.126-0.026 2.508-0.026c1.853 0 2.697 0.026 3.228 0.098z"></path>
</symbol>
<symbol id="icon-proxy" viewBox="0 0 32 32">
<path fill="#575ff2" style="fill: var(--color2, #575ff2)" d="M28.868 7.102c-0.129-1.682-1.423-3.105-3.234-3.234-2.587-0.259-6.21-0.388-8.927-0.388s-6.339 0.129-8.927 0.388c-0.906 0-1.682 0.388-2.199 1.035s-0.906 1.294-1.035 2.199c-0.259 2.587-0.388 6.21-0.388 8.927s0.259 6.339 0.388 8.927c0.129 1.682 1.423 3.105 3.234 3.234 2.587 0.259 6.21 0.388 8.927 0.388s6.339-0.259 8.927-0.388c1.682-0.129 3.105-1.423 3.234-3.234 0.259-2.587 0.388-6.21 0.388-8.927s-0.129-6.339-0.388-8.927zM12.567 21.204c0 0.518-0.388 1.035-1.035 1.035s-1.035-0.517-1.035-1.035v-3.881c0-0.517 0.388-1.035 1.035-1.035s1.035 0.388 1.035 1.035v3.881zM17.742 21.204c0 0.518-0.388 1.035-1.035 1.035s-1.035-0.388-1.035-1.035v-7.762c0-0.518 0.388-1.035 1.035-1.035s1.035 0.388 1.035 1.035v7.762zM22.917 21.204c0 0.518-0.388 1.035-1.035 1.035s-1.035-0.388-1.035-1.035v-11.643c0-0.517 0.388-1.035 1.035-1.035s1.035 0.388 1.035 1.035v11.643z"></path>
</symbol>
<symbol id="icon-spy" viewBox="0 0 32 32">
<path fill="#575ff2" style="fill: var(--color2, #575ff2)" d="M28.809 6.394c-0.129-1.682-1.423-3.105-3.234-3.234-2.587-0.259-6.21-0.388-8.927-0.388s-6.339 0.129-8.927 0.388c-1.811 0.129-3.105 1.423-3.234 3.234-0.259 2.587-0.388 6.21-0.388 8.927s0.259 6.339 0.388 8.927c0.129 1.682 1.423 3.105 3.234 3.234 2.587 0.259 6.21 0.388 8.927 0.388s6.339-0.259 8.927-0.388c1.682-0.129 3.105-1.423 3.234-3.234 0.259-2.587 0.388-6.21 0.388-8.927s-0.13-6.339-0.388-8.927zM11.473 8.853c0.647 0 1.294 0.647 1.294 1.294s-0.647 1.294-1.294 1.294c-0.647 0-1.294-0.647-1.294-1.294s0.647-1.294 1.294-1.294zM26.869 24.118c0 0.776-0.647 1.423-1.423 1.423-2.587 0.259-6.21 0.388-8.797 0.388s-6.21-0.259-8.797-0.388c-0.517 0-0.906-0.388-1.164-0.776l9.573-7.633c1.552-1.294 3.881-1.294 5.304 0.129l5.434 4.657c0 0.776 0 1.552-0.129 2.199z"></path>
</symbol>
<symbol id="icon-star" viewBox="0 0 32 32">
<path fill="#e9ebff" style="fill: var(--color2, #e9ebff)" d="M1.77 16.534l4.747 3.467-1.803 5.583c-0.291 0.866-0.295 1.803-0.011 2.671s0.842 1.621 1.589 2.147c0.734 0.542 1.625 0.833 2.538 0.828s1.8-0.304 2.529-0.854l4.641-3.416 4.643 3.412c0.733 0.539 1.618 0.832 2.528 0.837s1.798-0.28 2.537-0.812c0.738-0.532 1.289-1.285 1.573-2.149s0.286-1.797 0.006-2.663l-1.803-5.583 4.747-3.467c0.732-0.535 1.276-1.288 1.555-2.151s0.277-1.792-0.004-2.655c-0.281-0.862-0.827-1.614-1.561-2.147s-1.617-0.821-2.524-0.823h-5.831l-1.769-5.515c-0.278-0.868-0.825-1.625-1.561-2.163s-1.624-0.827-2.536-0.827c-0.912 0-1.8 0.289-2.536 0.827s-1.283 1.295-1.561 2.163l-1.769 5.515h-5.825c-0.907 0.001-1.79 0.289-2.524 0.823s-1.28 1.285-1.561 2.147c-0.281 0.862-0.282 1.792-0.004 2.655s0.823 1.616 1.555 2.151h-0.005z"></path>
</symbol>
<symbol id="icon-angle-down" viewBox="0 0 32 32">
<path fill="#fff" style="fill: var(--color4, #fff)" d="M25.415 10.472c-0.186-0.186-0.406-0.333-0.649-0.434s-0.503-0.152-0.766-0.152c-0.263 0-0.523 0.052-0.766 0.152s-0.463 0.248-0.649 0.434l-6.115 6.113c-0.125 0.125-0.295 0.195-0.471 0.195s-0.346-0.070-0.471-0.195l-6.113-6.113c-0.375-0.375-0.884-0.586-1.414-0.586s-1.039 0.21-1.414 0.585c-0.375 0.375-0.586 0.884-0.586 1.414s0.21 1.039 0.585 1.414l6.115 6.115c0.433 0.433 0.948 0.777 1.514 1.012s1.173 0.355 1.786 0.355c0.613 0 1.22-0.121 1.786-0.355s1.081-0.578 1.514-1.012l6.115-6.115c0.375-0.375 0.586-0.884 0.586-1.414s-0.211-1.039-0.586-1.414z"></path>
</symbol>
<symbol id="icon-video" viewBox="0 0 32 32">
<path fill="#575ff2" style="fill: var(--color3, #575ff2)" d="M23.453 9.162c0-0.957-0.41-1.641-1.094-2.325s-1.367-0.957-2.325-1.094c-2.051-0.137-4.786-0.41-6.974-0.41s-4.786 0.274-6.838 0.41c-1.778 0.274-3.145 1.641-3.282 3.419-0.137 1.915-0.273 4.65-0.273 6.838s0.137 4.786 0.273 6.838c0.137 1.778 1.504 3.282 3.282 3.419 2.051 0.137 4.786 0.41 6.974 0.41s4.923-0.273 6.974-0.41c1.778-0.137 3.145-1.641 3.282-3.419 0-0.684 0.137-1.641 0.137-2.461 0.137-1.504 0.137-3.009 0.137-4.376s0-2.872-0.137-4.376c0-0.821-0.137-1.641-0.137-2.462z"></path>
<path fill="#575ff2" style="fill: var(--color3, #575ff2)" d="M28.786 9.709c-0.274-0.137-0.684-0.137-0.957 0l-2.872 1.368c0 0.684 0.137 1.504 0.137 2.188 0 0.957 0.137 1.915 0.137 2.735s0 1.778-0.137 2.735c0 0.684 0 1.504-0.137 2.188l2.872 1.367c0.137 0 0.273 0.137 0.41 0.137s0.41 0 0.547-0.137c0.273-0.137 0.547-0.547 0.547-0.82v-10.94c0-0.41-0.273-0.684-0.547-0.821z"></path>
</symbol>
<symbol id="icon-dock" viewBox="0 0 32 32">
<path fill="#575ff2" style="fill: var(--color3, #575ff2)" d="M25.573 9.51l-5.607-5.742c-0.684-0.684-1.641-1.094-2.735-1.094h-8.068c-2.051-0.137-3.829 1.641-3.829 3.691v19.14c0 2.051 1.641 3.828 3.829 3.828h13.675c2.051 0 3.829-1.641 3.829-3.828v-13.398c0-0.957-0.41-1.914-1.094-2.598zM11.897 13.475h4.103c0.547 0 1.094 0.41 1.094 1.094s-0.41 1.094-1.094 1.094h-4.103c-0.547 0-1.094-0.41-1.094-1.094s0.547-1.094 1.094-1.094zM20.103 21.131h-8.205c-0.547 0-1.094-0.41-1.094-1.094s0.41-1.094 1.094-1.094h8.205c0.547 0 1.094 0.41 1.094 1.094s-0.547 1.094-1.094 1.094z"></path>
</symbol>
<symbol id="icon-edit" viewBox="0 0 32 32">
<path fill="#575ff2" style="fill: var(--color3, #575ff2)" d="M27.985 5.713l-1.798-1.805c-1.648-1.655-4.195-1.655-5.843 0l-2.996 3.159 7.641 7.673 3.146-3.159c0.749-0.752 1.199-1.805 1.199-2.858s-0.599-2.257-1.348-3.009z"></path>
<path fill="#575ff2" style="fill: var(--color3, #575ff2)" d="M21.693 14.59l-5.993-6.018-11.835 11.885c-0.749 0.752-1.199 1.805-1.199 3.009v4.664c0 0.602 0.449 1.204 1.199 1.204h4.794c1.049 0 2.097-0.451 2.996-1.204l11.835-11.885-1.798-1.655z"></path>
</symbol>
<symbol id="icon-check-cube" viewBox="0 0 30 32">
<path fill="#575ff2" style="fill: var(--color4, #575ff2)" d="M27.221 7.994c-0.129-1.682-1.423-3.105-3.234-3.234-2.587-0.259-6.21-0.388-8.927-0.388s-6.339 0.129-8.927 0.388c-0.906 0-1.682 0.388-2.199 1.035s-0.906 1.294-1.035 2.199c-0.259 2.587-0.388 6.21-0.388 8.927s0.259 6.339 0.388 8.927c0.129 1.682 1.423 3.105 3.234 3.234 2.587 0.259 6.21 0.388 8.927 0.388s6.339-0.259 8.927-0.388c1.682-0.129 3.105-1.423 3.234-3.234 0.259-2.587 0.388-6.21 0.388-8.927s-0.129-6.339-0.388-8.927zM19.588 14.98l-5.175 5.175c-0.259 0.13-0.388 0.259-0.647 0.259s-0.518-0.129-0.647-0.259l-2.587-2.587c-0.388-0.388-0.388-1.035 0-1.423s1.035-0.388 1.423 0l1.941 1.941 4.528-4.528c0.388-0.388 1.035-0.388 1.423 0 0.129 0.517 0.129 1.035-0.259 1.423z"></path>
</symbol>
<symbol id="icon-logo-dark" viewBox="0 0 39 32">
<path fill="#f5f6fa" style="fill: var(--color5, #f5f6fa)" opacity="0.2" d="M35.619 16c0 8.837-7.249 16-16.19 16s-16.19-7.163-16.19-16c0-8.837 7.249-16 16.19-16s16.19 7.163 16.19 16z"></path>
<path fill="#f5f6fa" style="fill: var(--color5, #f5f6fa)" d="M30.506 22.827c-0.368 0.071-7.496 1.347-11.078-3.289-2.847 3.654-7.894 3.769-11.022 3.303-9.099-2.502-8.398-12.015-8.392-12.107 0.010-0.141 0.062-0.275 0.149-0.385s0.204-0.191 0.337-0.231c0.132-0.041 0.273-0.041 0.405-0.001s0.25 0.12 0.338 0.228c0.021 0.028 2.284 2.828 5.206 2.934 1.625 0.071 3.21-0.764 4.636-2.332 1.727-1.402 5.752-2.47 8.343 0.879 0.882-1.148 2.147-1.925 3.554-2.183 1.7-0.193 3.409 0.273 4.789 1.304 1.426 1.568 3.012 2.403 4.636 2.332 2.922-0.106 5.185-2.906 5.206-2.935 0.089-0.107 0.206-0.184 0.338-0.224s0.272-0.038 0.403 0.004c0.131 0.042 0.247 0.121 0.334 0.23s0.14 0.241 0.154 0.38c0.007 0.092 0.708 9.605-8.336 12.093z"></path>
</symbol>
<symbol id="icon-tg" viewBox="0 0 32 32">
<path d="M28.622 3.654c-4.011 1.661-21.206 8.784-25.958 10.725-3.187 1.243-1.321 2.409-1.321 2.409s2.72 0.933 5.052 1.632c2.332 0.7 3.575-0.078 3.575-0.078l10.958-7.383c3.886-2.642 2.953-0.466 2.021 0.466-2.021 2.021-5.363 5.207-8.16 7.772-1.244 1.088-0.622 2.021-0.078 2.487 2.021 1.71 7.539 5.207 7.85 5.44 1.642 1.162 4.871 2.835 5.363-0.7l1.943-12.202c0.622-4.119 1.244-7.927 1.321-9.015 0.233-2.642-2.565-1.554-2.565-1.554z"></path>
</symbol>
<symbol id="icon-tik" viewBox="0 0 28 32">
<path d="M27.054 7.029c-3.359 0-6.091-2.733-6.091-6.092 0-0.518-0.42-0.938-0.938-0.938h-5.021c-0.518 0-0.938 0.42-0.938 0.938v20.585c0 1.975-1.607 3.581-3.581 3.581s-3.581-1.607-3.581-3.581c0-1.975 1.607-3.581 3.581-3.581 0.518 0 0.938-0.42 0.938-0.938v-5.021c0-0.518-0.42-0.938-0.938-0.938-5.777 0-10.477 4.7-10.477 10.477s4.7 10.477 10.477 10.477c5.777 0 10.477-4.7 10.477-10.477v-9.112c1.866 0.995 3.942 1.514 6.092 1.514 0.518 0 0.938-0.42 0.938-0.938v-5.021c-0-0.518-0.42-0.938-0.938-0.938z"></path>
</symbol>
<symbol id="icon-youtube" viewBox="0 0 43 32">
<path d="M41.004 3.565c-1.54-1.831-4.384-2.578-9.814-2.578h-19.713c-5.555 0-8.447 0.795-9.981 2.744-1.496 1.9-1.496 4.701-1.496 8.576v7.387c0 7.508 1.775 11.32 11.477 11.32h19.713c4.709 0 7.319-0.659 9.007-2.275 1.731-1.657 2.47-4.362 2.47-9.045v-7.387c0-4.087-0.116-6.904-1.663-8.743zM27.392 17.020l-8.951 4.678c-0.2 0.105-0.419 0.156-0.637 0.156-0.247 0-0.494-0.067-0.713-0.199-0.412-0.25-0.663-0.696-0.663-1.177v-9.327c0-0.481 0.251-0.927 0.662-1.176s0.922-0.267 1.349-0.045l8.951 4.648c0.455 0.236 0.741 0.707 0.742 1.22s-0.284 0.984-0.739 1.222z"></path>
</symbol>
<symbol id="icon-logoForm" viewBox="0 0 39 32">
<path fill="#fff" style="fill: var(--color5, #fff)" opacity="0.2" d="M35.619 16c0 8.837-7.249 16-16.19 16s-16.19-7.163-16.19-16c0-8.837 7.249-16 16.19-16s16.19 7.163 16.19 16z"></path>
<path fill="#fff" style="fill: var(--color5, #fff)" d="M30.506 22.827c-0.368 0.071-7.496 1.347-11.078-3.289-2.847 3.654-7.894 3.769-11.022 3.303-9.099-2.502-8.398-12.015-8.392-12.107 0.010-0.141 0.062-0.275 0.149-0.385s0.204-0.191 0.337-0.231c0.132-0.041 0.273-0.041 0.405-0.001s0.25 0.12 0.338 0.228c0.021 0.028 2.284 2.828 5.206 2.934 1.625 0.071 3.21-0.764 4.636-2.332 1.727-1.402 5.752-2.47 8.343 0.879 0.882-1.148 2.147-1.925 3.554-2.183 1.7-0.193 3.409 0.273 4.789 1.304 1.426 1.568 3.012 2.403 4.636 2.332 2.922-0.106 5.185-2.906 5.206-2.935 0.089-0.107 0.206-0.184 0.338-0.224s0.272-0.038 0.403 0.004c0.131 0.042 0.247 0.121 0.334 0.23s0.14 0.241 0.154 0.38c0.007 0.092 0.708 9.605-8.336 12.093z"></path>
</symbol>
</defs>
</svg>