<svg aria-hidden="true" style="position: absolute; width: 0; height: 0; overflow: hidden;" version="1.1" xmlns="http://www.w3.org/2000/svg" xmlns:xlink="http://www.w3.org/1999/xlink">
<defs>
<symbol id="icon-burger" viewBox="0 0 32 32">
<path fill="#575ff2" style="fill: var(--color1, #575ff2)" d="M30 14h-28c-1.105 0-2 0.895-2 2s0.895 2 2 2h28c1.105 0 2-0.895 2-2s-0.895-2-2-2z"></path>
<path fill="#575ff2" style="fill: var(--color1, #575ff2)" d="M2 8.667h28c1.105 0 2-0.895 2-2s-0.895-2-2-2h-28c-1.105 0-2 0.895-2 2s0.895 2 2 2z"></path>
<path fill="#575ff2" style="fill: var(--color1, #575ff2)" d="M30 23.333h-28c-1.105 0-2 0.895-2 2s0.895 2 2 2h28c1.105 0 2-0.896 2-2s-0.895-2-2-2z"></path>
</symbol>
<symbol id="icon-close" viewBox="0 0 32 32">
<path fill="#575ff2" style="fill: var(--color1, #575ff2)" d="M18.828 16l12.586-12.585c0.781-0.781 0.781-2.048 0-2.829s-2.048-0.781-2.829 0l-12.585 12.586-12.585-12.586c-0.781-0.781-2.048-0.781-2.829 0s-0.781 2.048 0 2.829l12.586 12.585-12.586 12.585c-0.781 0.781-0.781 2.048 0 2.829s2.048 0.781 2.829 0l12.585-12.586 12.585 12.586c0.781 0.781 2.048 0.781 2.829 0s0.781-2.048 0-2.829l-12.586-12.585z"></path>
</symbol>
<symbol id="icon-logo" viewBox="0 0 39 32">
<path fill="#575ff2" style="fill: var(--color1, #575ff2)" opacity="0.2" d="M35.274 16c0 8.682-7.122 15.719-15.906 15.719s-15.906-7.038-15.906-15.719c0-8.682 7.122-15.719 15.906-15.719s15.906 7.038 15.906 15.719z"></path>
<path fill="#575ff2" style="fill: var(--color1, #575ff2)" d="M30.252 22.707c-0.361 0.070-7.365 1.323-10.883-3.231-2.797 3.59-7.756 3.703-10.829 3.245-8.94-2.458-8.251-11.804-8.244-11.894 0.010-0.138 0.061-0.27 0.147-0.379s0.201-0.187 0.331-0.227c0.13-0.040 0.268-0.041 0.398-0.001s0.245 0.117 0.332 0.224c0.020 0.028 2.243 2.779 5.114 2.883 1.596 0.069 3.154-0.751 4.555-2.291 1.697-1.378 5.651-2.427 8.197 0.863 0.867-1.128 2.109-1.891 3.491-2.145 1.67-0.189 3.349 0.268 4.705 1.281 1.401 1.54 2.959 2.361 4.555 2.291 2.871-0.104 5.094-2.855 5.114-2.883 0.087-0.105 0.203-0.181 0.332-0.22s0.267-0.037 0.396 0.004c0.129 0.041 0.243 0.119 0.328 0.226s0.138 0.236 0.152 0.373c0.007 0.091 0.696 9.436-8.19 11.88z"></path>
</symbol>
</defs>
</svg>