<svg aria-hidden="true" style="position: absolute; width: 0; height: 0; overflow: hidden;" version="1.1" xmlns="http://www.w3.org/2000/svg" xmlns:xlink="http://www.w3.org/1999/xlink">
<defs>
<symbol id="icon-burger" viewBox="0 0 32 32">
<path fill="#575ff2" style="fill: var(--color1, #575ff2)" d="M30 14h-28c-1.105 0-2 0.895-2 2s0.895 2 2 2h28c1.105 0 2-0.895 2-2s-0.895-2-2-2z"></path>
<path fill="#575ff2" style="fill: var(--color1, #575ff2)" d="M2 8.667h28c1.105 0 2-0.895 2-2s-0.895-2-2-2h-28c-1.105 0-2 0.895-2 2s0.895 2 2 2z"></path>
<path fill="#575ff2" style="fill: var(--color1, #575ff2)" d="M30 23.333h-28c-1.105 0-2 0.895-2 2s0.895 2 2 2h28c1.105 0 2-0.896 2-2s-0.895-2-2-2z"></path>
</symbol>
<symbol id="icon-close" viewBox="0 0 32 32">
<path fill="#575ff2" style="fill: var(--color1, #575ff2)" d="M18.828 16l12.586-12.585c0.781-0.781 0.781-2.048 0-2.829s-2.048-0.781-2.829 0l-12.585 12.586-12.585-12.586c-0.781-0.781-2.048-0.781-2.829 0s-0.781 2.048 0 2.829l12.586 12.585-12.586 12.585c-0.781 0.781-0.781 2.048 0 2.829s2.048 0.781 2.829 0l12.585-12.586 12.585 12.586c0.781 0.781 2.048 0.781 2.829 0s0.781-2.048 0-2.829l-12.586-12.585z"></path>
</symbol>
<symbol id="icon-logo" viewBox="0 0 39 32">
<path fill="#575ff2" style="fill: var(--color1, #575ff2)" opacity="0.2" d="M35.274 16c0 8.682-7.122 15.719-15.906 15.719s-15.906-7.038-15.906-15.719c0-8.682 7.122-15.719 15.906-15.719s15.906 7.038 15.906 15.719z"></path>
<path fill="#575ff2" style="fill: var(--color1, #575ff2)" d="M30.252 22.707c-0.361 0.070-7.365 1.323-10.883-3.231-2.797 3.59-7.756 3.703-10.829 3.245-8.94-2.458-8.251-11.804-8.244-11.894 0.010-0.138 0.061-0.27 0.147-0.379s0.201-0.187 0.331-0.227c0.13-0.040 0.268-0.041 0.398-0.001s0.245 0.117 0.332 0.224c0.020 0.028 2.243 2.779 5.114 2.883 1.596 0.069 3.154-0.751 4.555-2.291 1.697-1.378 5.651-2.427 8.197 0.863 0.867-1.128 2.109-1.891 3.491-2.145 1.67-0.189 3.349 0.268 4.705 1.281 1.401 1.54 2.959 2.361 4.555 2.291 2.871-0.104 5.094-2.855 5.114-2.883 0.087-0.105 0.203-0.181 0.332-0.22s0.267-0.037 0.396 0.004c0.129 0.041 0.243 0.119 0.328 0.226s0.138 0.236 0.152 0.373c0.007 0.091 0.696 9.436-8.19 11.88z"></path>
</symbol>
<symbol id="icon-check" viewBox="0 0 38 32">
<path d="M37.508 3.076c-1.188-1.19-3.117-1.189-4.307 0l-19.385 19.386-8.616-8.616c-1.19-1.19-3.118-1.19-4.308 0s-1.19 3.118 0 4.308l10.769 10.769c0.595 0.594 1.374 0.892 2.154 0.892s1.56-0.297 2.154-0.892l21.539-21.539c1.189-1.189 1.189-3.118 0-4.308z"></path>
</symbol>
<symbol id="icon-track" viewBox="0 0 32 32">
<path fill="#575ff2" style="fill: var(--color2, #575ff2)" d="M28.675 6.258c-0.128-1.673-1.537-2.96-3.201-3.089-2.561-0.257-6.147-0.386-8.964-0.386s-6.275 0.129-8.836 0.386c-0.896 0-1.537 0.386-2.177 1.030-0.512 0.515-0.896 1.287-0.896 2.059-0.128 2.059-0.384 4.891-0.384 7.079s0.256 5.020 0.384 7.079c0.128 1.673 1.537 2.96 3.201 3.089 2.561 0.257 6.146 0.386 8.964 0.386s6.403-0.258 8.964-0.386c1.665-0.129 2.945-1.416 3.201-3.089 0.256-2.059 0.384-4.891 0.384-7.079s-0.384-5.020-0.64-7.079zM22.4 10.763l-3.842 3.861c-0.384 0.386-1.024 0.386-1.409 0l-1.793-1.802-3.201 3.218c-0.256 0.129-0.384 0.257-0.64 0.257s-0.512-0.129-0.64-0.257c-0.384-0.386-0.384-1.030 0-1.416l3.842-3.861c0.384-0.386 1.024-0.386 1.409 0l1.793 1.802 3.201-3.218c0.384-0.386 1.024-0.386 1.409 0 0.256 0.515 0.256 1.030-0.128 1.416z"></path>
<path fill="#575ff2" style="fill: var(--color2, #575ff2)" d="M21.76 27.881h-10.244c-0.512 0-1.024-0.386-1.024-1.030s0.384-1.030 1.024-1.030h10.244c0.512 0 1.024 0.386 1.024 1.030s-0.512 1.030-1.024 1.030z"></path>
</symbol>
<symbol id="icon-acc" viewBox="0 0 32 32">
<path fill="#575ff2" style="fill: var(--color2, #575ff2)" d="M20.893 15.641c0.261 0.13 0.654 0.13 1.046 0.13 2.352 0 4.313-1.956 4.313-4.303s-1.96-4.303-4.313-4.303c-0.131 0-0.131 0-0.261 0 0.784 1.043 1.176 2.347 1.176 3.781 0 1.695-0.654 3.39-1.96 4.694z"></path>
<path fill="#575ff2" style="fill: var(--color2, #575ff2)" d="M23.638 17.466h-0.915c1.699 1.304 2.744 3.39 2.744 5.737 0 0.521-0.131 1.043-0.261 1.565 1.307-0.261 2.091-0.522 2.614-0.782s0.784-0.913 0.784-1.565c0.131-2.738-2.222-4.954-4.966-4.954z"></path>
<path fill="#575ff2" style="fill: var(--color2, #575ff2)" d="M10.176 15.771c0.392 0 0.653 0 1.046-0.13-1.176-1.304-1.96-2.868-1.96-4.824 0-1.434 0.392-2.738 1.176-3.781 0 0-0.131 0-0.261 0-2.352 0-4.313 1.956-4.313 4.303s1.83 4.433 4.313 4.433z"></path>
<path fill="#575ff2" style="fill: var(--color2, #575ff2)" d="M9.261 17.466h-0.784c-2.745 0-4.966 2.217-4.966 4.954 0 0.652 0.261 1.304 0.784 1.565s1.307 0.652 2.614 0.782c-0.131-0.522-0.261-1.043-0.261-1.565 0-2.216 0.915-4.303 2.614-5.737z"></path>
<path fill="#575ff2" style="fill: var(--color2, #575ff2)" d="M13.052 14.598c0.784 0.652 1.83 1.043 3.006 1.043s2.222-0.391 3.006-1.043c1.176-0.913 1.83-2.216 1.83-3.781 0-1.173-0.392-2.347-1.176-3.129-0.915-1.043-2.222-1.695-3.659-1.695s-2.875 0.652-3.659 1.695c-0.784 0.782-1.307 1.956-1.307 3.129 0 1.565 0.784 2.868 1.96 3.781z"></path>
<path fill="#575ff2" style="fill: var(--color2, #575ff2)" d="M18.671 17.727c-0.261 0-0.523 0-0.784 0h-3.921c-0.261 0-0.523 0-0.784 0-2.745 0.391-4.836 2.738-4.836 5.476 0 0.782 0.392 1.434 0.915 1.695 0.915 0.521 2.745 1.173 6.535 1.173s5.62-0.652 6.535-1.173c0.653-0.391 0.915-1.043 0.915-1.695 0.392-2.738-1.83-5.085-4.574-5.476z"></path>
</symbol>
<symbol id="icon-browser" viewBox="0 0 32 32">
<path fill="#e9ebff" style="fill: var(--color4, #e9ebff)" d="M16.563 31.36c8.483 0 15.36-6.877 15.36-15.36s-6.877-15.36-15.36-15.36c-8.483 0-15.36 6.877-15.36 15.36s6.877 15.36 15.36 15.36z"></path>
<path fill="#575ff2" style="fill: var(--color5, #575ff2)" d="M13.661 13.815c0 0 9.762-6.136 17.779 0.447-0.001-0.001-0.003-0.002-0.004-0.003 0.004 0.004 0.009 0.007 0.013 0.011-0.003-0.003-0.006-0.005-0.009-0.008 0.142 0.117 0.284 0.238 0.426 0.363-0.204-2.389-0.975-4.763-2.357-6.92-4.562-7.121-14.058-9.179-21.209-4.598-0.185 0.119-0.367 0.242-0.545 0.367 0.001 0.006 0.003 0.051 0.009 0.129 0.069 0.86 0.792 8.25 5.896 10.212z"></path>
<path fill="#575ff2" style="fill: var(--color5, #575ff2)" d="M31.867 14.625c-0.011-0.004-0.023-0.008-0.034-0.012-1.619-0.589-7.66-2.892-12.018-0.314 0 0 0.645 12.061-9.901 15.549 0.001-0 6.604-3.288 6.604-10.061 0 0-10.241-4.905-8.763-16.313-6.708 4.706-8.585 13.885-4.141 20.821 1.599 2.495 3.803 4.368 6.3 5.552 4.629 2.195 10.263 2.022 14.909-0.954 4.985-3.194 7.514-8.771 7.043-14.269zM9.915 29.848c0.043-0.024 0.044-0.024 0 0v0z"></path>
</symbol>
<symbol id="icon-proxy" viewBox="0 0 32 32">
<path fill="#575ff2" style="fill: var(--color2, #575ff2)" d="M28.868 7.102c-0.129-1.682-1.423-3.105-3.234-3.234-2.587-0.259-6.21-0.388-8.927-0.388s-6.339 0.129-8.927 0.388c-0.906 0-1.682 0.388-2.199 1.035s-0.906 1.294-1.035 2.199c-0.259 2.587-0.388 6.21-0.388 8.927s0.259 6.339 0.388 8.927c0.129 1.682 1.423 3.105 3.234 3.234 2.587 0.259 6.21 0.388 8.927 0.388s6.339-0.259 8.927-0.388c1.682-0.129 3.105-1.423 3.234-3.234 0.259-2.587 0.388-6.21 0.388-8.927s-0.129-6.339-0.388-8.927zM12.567 21.204c0 0.518-0.388 1.035-1.035 1.035s-1.035-0.517-1.035-1.035v-3.881c0-0.517 0.388-1.035 1.035-1.035s1.035 0.388 1.035 1.035v3.881zM17.742 21.204c0 0.518-0.388 1.035-1.035 1.035s-1.035-0.388-1.035-1.035v-7.762c0-0.518 0.388-1.035 1.035-1.035s1.035 0.388 1.035 1.035v7.762zM22.917 21.204c0 0.518-0.388 1.035-1.035 1.035s-1.035-0.388-1.035-1.035v-11.643c0-0.517 0.388-1.035 1.035-1.035s1.035 0.388 1.035 1.035v11.643z"></path>
</symbol>
<symbol id="icon-spy" viewBox="0 0 32 32">
<path fill="#575ff2" style="fill: var(--color2, #575ff2)" d="M28.809 6.394c-0.129-1.682-1.423-3.105-3.234-3.234-2.587-0.259-6.21-0.388-8.927-0.388s-6.339 0.129-8.927 0.388c-1.811 0.129-3.105 1.423-3.234 3.234-0.259 2.587-0.388 6.21-0.388 8.927s0.259 6.339 0.388 8.927c0.129 1.682 1.423 3.105 3.234 3.234 2.587 0.259 6.21 0.388 8.927 0.388s6.339-0.259 8.927-0.388c1.682-0.129 3.105-1.423 3.234-3.234 0.259-2.587 0.388-6.21 0.388-8.927s-0.13-6.339-0.388-8.927zM11.473 8.853c0.647 0 1.294 0.647 1.294 1.294s-0.647 1.294-1.294 1.294c-0.647 0-1.294-0.647-1.294-1.294s0.647-1.294 1.294-1.294zM26.869 24.118c0 0.776-0.647 1.423-1.423 1.423-2.587 0.259-6.21 0.388-8.797 0.388s-6.21-0.259-8.797-0.388c-0.517 0-0.906-0.388-1.164-0.776l9.573-7.633c1.552-1.294 3.881-1.294 5.304 0.129l5.434 4.657c0 0.776 0 1.552-0.129 2.199z"></path>
</symbol>
<symbol id="icon-star" viewBox="0 0 32 32">
<path fill="#e9ebff" style="fill: var(--color2, #e9ebff)" d="M1.77 16.534l4.747 3.467-1.803 5.583c-0.291 0.866-0.295 1.803-0.011 2.671s0.842 1.621 1.589 2.147c0.734 0.542 1.625 0.833 2.538 0.828s1.8-0.304 2.529-0.854l4.641-3.416 4.643 3.412c0.733 0.539 1.618 0.832 2.528 0.837s1.798-0.28 2.537-0.812c0.738-0.532 1.289-1.285 1.573-2.149s0.286-1.797 0.006-2.663l-1.803-5.583 4.747-3.467c0.732-0.535 1.276-1.288 1.555-2.151s0.277-1.792-0.004-2.655c-0.281-0.862-0.827-1.614-1.561-2.147s-1.617-0.821-2.524-0.823h-5.831l-1.769-5.515c-0.278-0.868-0.825-1.625-1.561-2.163s-1.624-0.827-2.536-0.827c-0.912 0-1.8 0.289-2.536 0.827s-1.283 1.295-1.561 2.163l-1.769 5.515h-5.825c-0.907 0.001-1.79 0.289-2.524 0.823s-1.28 1.285-1.561 2.147c-0.281 0.862-0.282 1.792-0.004 2.655s0.823 1.616 1.555 2.151h-0.005z"></path>
</symbol>
<symbol id="icon-angle-down" viewBox="0 0 32 32">
<path fill="#fff" style="fill: var(--color4, #fff)" d="M25.415 10.472c-0.186-0.186-0.406-0.333-0.649-0.434s-0.503-0.152-0.766-0.152c-0.263 0-0.523 0.052-0.766 0.152s-0.463 0.248-0.649 0.434l-6.115 6.113c-0.125 0.125-0.295 0.195-0.471 0.195s-0.346-0.070-0.471-0.195l-6.113-6.113c-0.375-0.375-0.884-0.586-1.414-0.586s-1.039 0.21-1.414 0.585c-0.375 0.375-0.586 0.884-0.586 1.414s0.21 1.039 0.585 1.414l6.115 6.115c0.433 0.433 0.948 0.777 1.514 1.012s1.173 0.355 1.786 0.355c0.613 0 1.22-0.121 1.786-0.355s1.081-0.578 1.514-1.012l6.115-6.115c0.375-0.375 0.586-0.884 0.586-1.414s-0.211-1.039-0.586-1.414z"></path>
</symbol>
<symbol id="icon-video" viewBox="0 0 32 32">
<path fill="#575ff2" style="fill: var(--color3, #575ff2)" d="M23.453 9.162c0-0.957-0.41-1.641-1.094-2.325s-1.367-0.957-2.325-1.094c-2.051-0.137-4.786-0.41-6.974-0.41s-4.786 0.274-6.838 0.41c-1.778 0.274-3.145 1.641-3.282 3.419-0.137 1.915-0.273 4.65-0.273 6.838s0.137 4.786 0.273 6.838c0.137 1.778 1.504 3.282 3.282 3.419 2.051 0.137 4.786 0.41 6.974 0.41s4.923-0.273 6.974-0.41c1.778-0.137 3.145-1.641 3.282-3.419 0-0.684 0.137-1.641 0.137-2.461 0.137-1.504 0.137-3.009 0.137-4.376s0-2.872-0.137-4.376c0-0.821-0.137-1.641-0.137-2.462z"></path>
<path fill="#575ff2" style="fill: var(--color3, #575ff2)" d="M28.786 9.709c-0.274-0.137-0.684-0.137-0.957 0l-2.872 1.368c0 0.684 0.137 1.504 0.137 2.188 0 0.957 0.137 1.915 0.137 2.735s0 1.778-0.137 2.735c0 0.684 0 1.504-0.137 2.188l2.872 1.367c0.137 0 0.273 0.137 0.41 0.137s0.41 0 0.547-0.137c0.273-0.137 0.547-0.547 0.547-0.82v-10.94c0-0.41-0.273-0.684-0.547-0.821z"></path>
</symbol>
<symbol id="icon-dock" viewBox="0 0 32 32">
<path fill="#575ff2" style="fill: var(--color3, #575ff2)" d="M25.573 9.51l-5.607-5.742c-0.684-0.684-1.641-1.094-2.735-1.094h-8.068c-2.051-0.137-3.829 1.641-3.829 3.691v19.14c0 2.051 1.641 3.828 3.829 3.828h13.675c2.051 0 3.829-1.641 3.829-3.828v-13.398c0-0.957-0.41-1.914-1.094-2.598zM11.897 13.475h4.103c0.547 0 1.094 0.41 1.094 1.094s-0.41 1.094-1.094 1.094h-4.103c-0.547 0-1.094-0.41-1.094-1.094s0.547-1.094 1.094-1.094zM20.103 21.131h-8.205c-0.547 0-1.094-0.41-1.094-1.094s0.41-1.094 1.094-1.094h8.205c0.547 0 1.094 0.41 1.094 1.094s-0.547 1.094-1.094 1.094z"></path>
</symbol>
<symbol id="icon-edit" viewBox="0 0 32 32">
<path fill="#575ff2" style="fill: var(--color3, #575ff2)" d="M27.985 5.713l-1.798-1.805c-1.648-1.655-4.195-1.655-5.843 0l-2.996 3.159 7.641 7.673 3.146-3.159c0.749-0.752 1.199-1.805 1.199-2.858s-0.599-2.257-1.348-3.009z"></path>
<path fill="#575ff2" style="fill: var(--color3, #575ff2)" d="M21.693 14.59l-5.993-6.018-11.835 11.885c-0.749 0.752-1.199 1.805-1.199 3.009v4.664c0 0.602 0.449 1.204 1.199 1.204h4.794c1.049 0 2.097-0.451 2.996-1.204l11.835-11.885-1.798-1.655z"></path>
</symbol>
<symbol id="icon-check-cube" viewBox="0 0 30 32">
<path fill="#575ff2" style="fill: var(--color4, #575ff2)" d="M27.221 7.994c-0.129-1.682-1.423-3.105-3.234-3.234-2.587-0.259-6.21-0.388-8.927-0.388s-6.339 0.129-8.927 0.388c-0.906 0-1.682 0.388-2.199 1.035s-0.906 1.294-1.035 2.199c-0.259 2.587-0.388 6.21-0.388 8.927s0.259 6.339 0.388 8.927c0.129 1.682 1.423 3.105 3.234 3.234 2.587 0.259 6.21 0.388 8.927 0.388s6.339-0.259 8.927-0.388c1.682-0.129 3.105-1.423 3.234-3.234 0.259-2.587 0.388-6.21 0.388-8.927s-0.129-6.339-0.388-8.927zM19.588 14.98l-5.175 5.175c-0.259 0.13-0.388 0.259-0.647 0.259s-0.518-0.129-0.647-0.259l-2.587-2.587c-0.388-0.388-0.388-1.035 0-1.423s1.035-0.388 1.423 0l1.941 1.941 4.528-4.528c0.388-0.388 1.035-0.388 1.423 0 0.129 0.517 0.129 1.035-0.259 1.423z"></path>
</symbol>
<symbol id="icon-logo-dark" viewBox="0 0 39 32">
<path fill="#f5f6fa" style="fill: var(--color5, #f5f6fa)" opacity="0.2" d="M35.619 16c0 8.837-7.249 16-16.19 16s-16.19-7.163-16.19-16c0-8.837 7.249-16 16.19-16s16.19 7.163 16.19 16z"></path>
<path fill="#f5f6fa" style="fill: var(--color5, #f5f6fa)" d="M30.506 22.827c-0.368 0.071-7.496 1.347-11.078-3.289-2.847 3.654-7.894 3.769-11.022 3.303-9.099-2.502-8.398-12.015-8.392-12.107 0.010-0.141 0.062-0.275 0.149-0.385s0.204-0.191 0.337-0.231c0.132-0.041 0.273-0.041 0.405-0.001s0.25 0.12 0.338 0.228c0.021 0.028 2.284 2.828 5.206 2.934 1.625 0.071 3.21-0.764 4.636-2.332 1.727-1.402 5.752-2.47 8.343 0.879 0.882-1.148 2.147-1.925 3.554-2.183 1.7-0.193 3.409 0.273 4.789 1.304 1.426 1.568 3.012 2.403 4.636 2.332 2.922-0.106 5.185-2.906 5.206-2.935 0.089-0.107 0.206-0.184 0.338-0.224s0.272-0.038 0.403 0.004c0.131 0.042 0.247 0.121 0.334 0.23s0.14 0.241 0.154 0.38c0.007 0.092 0.708 9.605-8.336 12.093z"></path>
</symbol>
<symbol id="icon-tg" viewBox="0 0 32 32">
<path d="M28.622 3.654c-4.011 1.661-21.206 8.784-25.958 10.725-3.187 1.243-1.321 2.409-1.321 2.409s2.72 0.933 5.052 1.632c2.332 0.7 3.575-0.078 3.575-0.078l10.958-7.383c3.886-2.642 2.953-0.466 2.021 0.466-2.021 2.021-5.363 5.207-8.16 7.772-1.244 1.088-0.622 2.021-0.078 2.487 2.021 1.71 7.539 5.207 7.85 5.44 1.642 1.162 4.871 2.835 5.363-0.7l1.943-12.202c0.622-4.119 1.244-7.927 1.321-9.015 0.233-2.642-2.565-1.554-2.565-1.554z"></path>
</symbol>
<symbol id="icon-tik" viewBox="0 0 28 32">
<path d="M27.054 7.029c-3.359 0-6.091-2.733-6.091-6.092 0-0.518-0.42-0.938-0.938-0.938h-5.021c-0.518 0-0.938 0.42-0.938 0.938v20.585c0 1.975-1.607 3.581-3.581 3.581s-3.581-1.607-3.581-3.581c0-1.975 1.607-3.581 3.581-3.581 0.518 0 0.938-0.42 0.938-0.938v-5.021c0-0.518-0.42-0.938-0.938-0.938-5.777 0-10.477 4.7-10.477 10.477s4.7 10.477 10.477 10.477c5.777 0 10.477-4.7 10.477-10.477v-9.112c1.866 0.995 3.942 1.514 6.092 1.514 0.518 0 0.938-0.42 0.938-0.938v-5.021c-0-0.518-0.42-0.938-0.938-0.938z"></path>
</symbol>
<symbol id="icon-youtube" viewBox="0 0 43 32">
<path d="M41.004 3.565c-1.54-1.831-4.384-2.578-9.814-2.578h-19.713c-5.555 0-8.447 0.795-9.981 2.744-1.496 1.9-1.496 4.701-1.496 8.576v7.387c0 7.508 1.775 11.32 11.477 11.32h19.713c4.709 0 7.319-0.659 9.007-2.275 1.731-1.657 2.47-4.362 2.47-9.045v-7.387c0-4.087-0.116-6.904-1.663-8.743zM27.392 17.020l-8.951 4.678c-0.2 0.105-0.419 0.156-0.637 0.156-0.247 0-0.494-0.067-0.713-0.199-0.412-0.25-0.663-0.696-0.663-1.177v-9.327c0-0.481 0.251-0.927 0.662-1.176s0.922-0.267 1.349-0.045l8.951 4.648c0.455 0.236 0.741 0.707 0.742 1.22s-0.284 0.984-0.739 1.222z"></path>
</symbol>
<symbol id="icon-logoForm" viewBox="0 0 39 32">
<path fill="#fff" style="fill: var(--color5, #fff)" opacity="0.2" d="M35.619 16c0 8.837-7.249 16-16.19 16s-16.19-7.163-16.19-16c0-8.837 7.249-16 16.19-16s16.19 7.163 16.19 16z"></path>
<path fill="#fff" style="fill: var(--color5, #fff)" d="M30.506 22.827c-0.368 0.071-7.496 1.347-11.078-3.289-2.847 3.654-7.894 3.769-11.022 3.303-9.099-2.502-8.398-12.015-8.392-12.107 0.010-0.141 0.062-0.275 0.149-0.385s0.204-0.191 0.337-0.231c0.132-0.041 0.273-0.041 0.405-0.001s0.25 0.12 0.338 0.228c0.021 0.028 2.284 2.828 5.206 2.934 1.625 0.071 3.21-0.764 4.636-2.332 1.727-1.402 5.752-2.47 8.343 0.879 0.882-1.148 2.147-1.925 3.554-2.183 1.7-0.193 3.409 0.273 4.789 1.304 1.426 1.568 3.012 2.403 4.636 2.332 2.922-0.106 5.185-2.906 5.206-2.935 0.089-0.107 0.206-0.184 0.338-0.224s0.272-0.038 0.403 0.004c0.131 0.042 0.247 0.121 0.334 0.23s0.14 0.241 0.154 0.38c0.007 0.092 0.708 9.605-8.336 12.093z"></path>
</symbol>
<symbol id="icon-privat" viewBox="0 0 32 32">
<path fill="#76ae42" style="fill: var(--color6, #76ae42)" d="M30 29.2h-13.626c0-1.1 0.011-2.181-0.003-3.263-0.019-1.5-0.22-2.974-0.71-4.399-1.11-3.228-3.444-5.088-6.735-5.88-1.713-0.412-3.457-0.439-5.205-0.431-0.556 0.003-1.112 0-1.682 0v-13.227h27.961v27.2zM24.212 23.579v-15.939h-16.372v2.125c8.192 1.142 12.989 5.655 14.17 13.815l2.202-0.001z"></path>
<path fill="#1f1f1f" style="fill: var(--color7, #1f1f1f)" d="M2 29.19v-10.615h10.935v10.615h-10.935z"></path>
</symbol>
<symbol id="icon-mono" viewBox="0 0 32 32">
<path fill="#000" style="fill: var(--color8, #000)" d="M25.213 2.105h-18.444c-2.566 0-4.646 2.080-4.646 4.646v18.46c0 2.566 2.080 4.646 4.646 4.646h18.444c2.566 0 4.646-2.080 4.646-4.646v-18.46c0-2.566-2.080-4.646-4.646-4.646z"></path>
<path fill="#fff" style="fill: var(--color9, #fff)" d="M11.379 18.165v-3.129c0-0.888-0.475-1.309-1.273-1.309-0.664 0-1.237 0.394-1.489 0.789-0.162-0.493-0.565-0.789-1.201-0.789-0.664 0-1.237 0.412-1.417 0.672v-0.565h-1.139v4.33h1.139v-2.914c0.17-0.242 0.502-0.511 0.897-0.511 0.466 0 0.646 0.287 0.646 0.69v2.734h1.148v-2.923c0.161-0.233 0.493-0.502 0.897-0.502 0.466 0 0.646 0.287 0.646 0.69v2.735l1.148 0zM14.508 18.273c-1.426 0-2.286-1.040-2.286-2.277 0-1.228 0.861-2.268 2.286-2.268 1.435 0 2.295 1.040 2.295 2.268 0 1.237-0.861 2.277-2.295 2.277zM14.508 17.26c0.709 0 1.112-0.583 1.112-1.264 0-0.672-0.403-1.255-1.112-1.255s-1.103 0.583-1.103 1.255c0 0.682 0.395 1.264 1.103 1.264zM21.708 18.165v-3.057c0-0.843-0.457-1.381-1.408-1.381-0.709 0-1.237 0.341-1.515 0.672v-0.565h-1.139v4.331h1.139v-2.914c0.188-0.26 0.538-0.511 0.986-0.511 0.484 0 0.798 0.206 0.798 0.807v2.618h1.139zM24.846 18.273c-1.426 0-2.286-1.040-2.286-2.277 0-1.228 0.861-2.268 2.286-2.268 1.435 0 2.295 1.040 2.295 2.268 0 1.237-0.861 2.277-2.295 2.277zM24.846 17.26c0.708 0 1.112-0.583 1.112-1.264 0-0.672-0.404-1.255-1.112-1.255s-1.103 0.583-1.103 1.255c0 0.682 0.395 1.264 1.103 1.264z"></path>
</symbol>
<symbol id="icon-a" viewBox="0 0 32 32">
<path fill="#00d352" style="fill: var(--color12, #00d352)" d="M8.078 11.647c0.239-1.067 0.357-4.895-4.937-5.017-0.24 1.067-0.357 4.891 4.937 5.017z"></path>
<path fill="#00d352" style="fill: var(--color12, #00d352)" d="M8.145 25.391c-1.189 0-2.126 0.504-3 0.218-1.723-0.563-3.651-3.76-3.958-6.945-0.277-2.874 0.861-4.71 2.277-5.492 1.84-1.013 3.307-0.282 4.681-0.282s2.886-0.731 4.727 0.282c1.416 0.781 2.555 2.618 2.277 5.492-0.307 3.181-2.235 6.382-3.958 6.945-0.874 0.286-1.857-0.218-3.046-0.218z"></path>
<path fill="#1f1f1f" style="fill: var(--color7, #1f1f1f)" d="M22.149 20.387l2.092-5.21 2.071 5.21h-4.164zM17.666 25.513h2.349l1.332-3.206h5.773l1.345 3.206h2.391l-5.433-12.68h-2.323l-5.433 12.68z"></path>
</symbol>
<symbol id="icon-credi" viewBox="0 0 32 32">
<path fill="#6fe817" style="fill: var(--color10, #6fe817)" d="M10.484 16.001c0-3.063 2.482-5.545 5.545-5.545s5.544 2.483 5.544 5.545c0 3.062-2.482 5.545-5.544 5.545s-5.545-2.483-5.545-5.545z"></path>
<path fill="#00966e" style="fill: var(--color11, #00966e)" d="M19.874 8.977c0-1.755 1.423-3.178 3.178-3.178s3.179 1.423 3.179 3.178c0 1.755-1.423 3.178-3.179 3.178s-3.178-1.423-3.178-3.178zM3.499 16.001c0-6.899 5.589-12.492 12.485-12.501v4.517c-4.402 0.008-7.968 3.579-7.968 7.983 0 4.409 3.574 7.983 7.983 7.983 4.383 0 7.983-3.54 7.983-8.013l4.517 0.003c0 6.931-5.596 12.527-12.5 12.527s-12.499-5.596-12.499-12.499z"></path>
</symbol>
<symbol id="icon-bank" viewBox="0 0 32 32">
<path d="M18.114 2.057c-0.743 0.743-0.4 1.371 0.8 1.371 0.629 0 1.086-0.286 0.971-0.686-0.286-0.8-1.257-1.2-1.771-0.686z"></path>
<path d="M14.857 3.2c0 0.514 0.4 0.8 0.971 0.686 1.429-0.286 1.6-1.6 0.229-1.6-0.686 0-1.2 0.343-1.2 0.914z"></path>
<path d="M20.971 2.629c-0.457 0.457 0.057 1.371 0.8 1.371 0.286 0 0.514-0.4 0.514-0.857 0-0.857-0.686-1.143-1.314-0.514z"></path>
<path d="M12.229 3.486c-0.571 0.971 0.743 2.057 1.543 1.257 0.686-0.686 0.229-1.886-0.629-1.886-0.286 0-0.686 0.286-0.914 0.629z"></path>
<path d="M23.429 4c0 0.286 0.286 0.571 0.571 0.571 0.343 0 0.571-0.286 0.571-0.571 0-0.343-0.229-0.571-0.571-0.571-0.286 0-0.571 0.229-0.571 0.571z"></path>
<path d="M9.143 5.429c0 0.457 0.514 0.857 1.143 0.857s1.143-0.4 1.143-0.857c0-0.457-0.514-0.857-1.143-0.857s-1.143 0.4-1.143 0.857z"></path>
<path d="M25.143 5.143c0 0.286 0.286 0.571 0.571 0.571 0.343 0 0.571-0.286 0.571-0.571 0-0.343-0.229-0.571-0.571-0.571-0.286 0-0.571 0.229-0.571 0.571z"></path>
<path d="M6.686 7.086c-0.4 1.029 0.057 1.486 1.429 1.486 0.743 0 1.029-0.343 0.914-0.971-0.229-1.257-1.943-1.657-2.343-0.514z"></path>
<path d="M5.257 9.657c-1.143 0.686-0.571 2.629 0.743 2.629 0.8 0 1.143-0.4 1.143-1.371 0-1.543-0.743-2-1.886-1.257z"></path>
<path d="M8.971 10.686c-0.229 0.171-0.4 0.686-0.4 1.143 0 0.857 1.486 1.029 1.943 0.229 0.4-0.629-1.029-1.886-1.543-1.371z"></path>
<path d="M19.143 10.857c-0.171 0.286-0.057 0.571 0.229 0.571 0.343 0 0.629-0.286 0.629-0.571 0-0.343-0.114-0.571-0.229-0.571-0.171 0-0.457 0.229-0.629 0.571z"></path>
<path d="M11.714 11.371c-0.4 0.686 0.686 1.371 1.429 0.914 0.629-0.4 0.229-1.429-0.571-1.429-0.286 0-0.629 0.229-0.857 0.514z"></path>
<path d="M14.629 11.371c-0.229 0.286-0.114 0.686 0.171 0.857 0.286 0.229 0.686 0.114 0.857-0.171 0.229-0.286 0.114-0.686-0.171-0.857-0.286-0.229-0.686-0.114-0.857 0.171z"></path>
<path d="M16.571 11.429c0 0.286 0.286 0.571 0.571 0.571 0.343 0 0.571-0.286 0.571-0.571 0-0.343-0.229-0.571-0.571-0.571-0.286 0-0.571 0.229-0.571 0.571z"></path>
<path d="M3.257 13.886c-0.457 1.2 0.457 2.229 1.657 2 1.543-0.286 1.429-2.4-0.114-2.629-0.686-0.114-1.371 0.171-1.543 0.629z"></path>
<path d="M18.057 15.257c-0.629 0.629-0.343 1.314 0.514 1.314 0.457 0 0.857-0.229 0.857-0.514 0-0.743-0.914-1.257-1.371-0.8z"></path>
<path d="M21.143 15.429c0 0.286 0.286 0.571 0.571 0.571 0.343 0 0.571-0.286 0.571-0.571 0-0.343-0.229-0.571-0.571-0.571-0.286 0-0.571 0.229-0.571 0.571z"></path>
<path d="M14.514 16.057c-0.571 0.971 0.743 2.057 1.543 1.257 0.686-0.686 0.229-1.886-0.629-1.886-0.286 0-0.686 0.286-0.914 0.629z"></path>
<path d="M8 16.914c-0.629 0.686-0.629 1.029 0.114 1.714 0.457 0.457 1.257 0.686 1.771 0.457 1.2-0.457 1.257-2.286 0.057-2.743s-1.143-0.457-1.943 0.571z"></path>
<path d="M11.429 17.2c0 0.8 0.286 1.086 0.971 0.971 1.486-0.286 1.657-2.171 0.229-2.171-0.857 0-1.2 0.343-1.2 1.2z"></path>
<path d="M4.114 17.086c-1.2 0.743-0.571 2.629 0.971 2.8 1.657 0.229 2.457-0.857 1.714-2.286-0.629-1.143-1.486-1.314-2.686-0.514z"></path>
<path d="M20.857 20c-0.171 0.286-0.057 0.571 0.229 0.571 0.343 0 0.629-0.286 0.629-0.571 0-0.343-0.114-0.571-0.229-0.571-0.171 0-0.457 0.229-0.629 0.571z"></path>
<path d="M23.143 20c-0.171 0.286-0.057 0.571 0.229 0.571 0.343 0 0.629-0.286 0.629-0.571 0-0.343-0.114-0.571-0.229-0.571-0.171 0-0.457 0.229-0.629 0.571z"></path>
<path d="M18.857 20.571c0 0.286 0.286 0.571 0.571 0.571 0.343 0 0.571-0.286 0.571-0.571 0-0.343-0.229-0.571-0.571-0.571-0.286 0-0.571 0.229-0.571 0.571z"></path>
<path d="M5.143 21.486c-0.629 0.686-0.571 1.029 0.171 1.771s1.086 0.8 1.771 0.171c1.143-0.914 1.143-2.057 0-2.514-1.2-0.457-1.143-0.457-1.943 0.571z"></path>
<path d="M16.571 21.143c0 0.286 0.286 0.571 0.571 0.571 0.343 0 0.571-0.286 0.571-0.571 0-0.343-0.229-0.571-0.571-0.571-0.286 0-0.571 0.229-0.571 0.571z"></path>
<path d="M14.114 21.486c-0.457 0.457 0.057 1.371 0.8 1.371 0.286 0 0.514-0.4 0.514-0.857 0-0.857-0.686-1.143-1.314-0.514z"></path>
<path d="M10.971 23.257c0.229 1.2 1.886 1.429 1.886 0.171 0-0.457-0.457-0.914-1.029-1.029-0.8-0.171-1.029 0.057-0.857 0.857z"></path>
<path d="M8.171 23.829c-1.029 0.4-0.914 2.4 0.171 2.857 0.457 0.171 1.314-0.057 1.771-0.571 0.743-0.743 0.8-1.086 0.171-1.771-0.743-0.971-0.971-1.029-2.114-0.514z"></path>
<path d="M11.257 26.686c-0.8 0.743-0.4 1.886 0.629 1.886 1.371 0 1.829-0.457 1.429-1.486-0.286-0.857-1.429-1.086-2.057-0.4z"></path>
<path d="M25.714 26.857c0 0.286 0.286 0.571 0.571 0.571 0.343 0 0.571-0.286 0.571-0.571 0-0.343-0.229-0.571-0.571-0.571-0.286 0-0.571 0.229-0.571 0.571z"></path>
<path d="M14.057 28.286c-0.171 0.514 0.057 1.029 0.571 1.257 1.086 0.4 2.229-0.629 1.714-1.486-0.571-0.914-1.886-0.743-2.286 0.229z"></path>
<path d="M23.429 28c0 0.286 0.4 0.571 0.857 0.571s0.857-0.286 0.857-0.571c0-0.343-0.4-0.571-0.857-0.571s-0.857 0.229-0.857 0.571z"></path>
<path d="M17.371 28.629c-0.571 0.971 0.743 2.057 1.543 1.257 0.686-0.686 0.229-1.886-0.629-1.886-0.286 0-0.686 0.286-0.914 0.629z"></path>
<path d="M20.286 28.514c-0.171 0.286-0.057 0.686 0.286 0.914 0.686 0.4 1.714-0.114 1.714-0.914 0-0.686-1.543-0.686-2 0z"></path>
</symbol>
<symbol id="icon-logo_red" viewBox="0 0 32 32">
<path fill="#f8b8b8" style="fill: var(--color1, #f8b8b8)" d="M16.001 27.296c6.239 0 11.296-5.057 11.296-11.296s-5.057-11.296-11.296-11.296c-6.239 0-11.296 5.057-11.296 11.296s5.057 11.296 11.296 11.296z"></path>
<path fill="#f00" style="fill: var(--color2, #f00)" d="M23.297 20.913c-0.242 0.047-4.939 0.887-7.298-2.167-1.876 2.408-5.201 2.483-7.262 2.176-5.995-1.648-5.533-7.916-5.529-7.976 0.007-0.093 0.041-0.181 0.098-0.254s0.135-0.126 0.222-0.152c0.087-0.027 0.18-0.027 0.267-0.001s0.164 0.079 0.223 0.15c0.014 0.019 1.504 1.863 3.43 1.933 1.071 0.047 2.115-0.503 3.055-1.536 1.138-0.924 3.789-1.627 5.497 0.579 0.581-0.756 1.415-1.268 2.341-1.438 1.12-0.127 2.246 0.18 3.155 0.859 0.94 1.033 1.984 1.583 3.055 1.536 1.925-0.070 3.416-1.915 3.43-1.933 0.058-0.070 0.136-0.122 0.223-0.147s0.179-0.025 0.265 0.002c0.086 0.027 0.163 0.080 0.22 0.151s0.093 0.158 0.102 0.25c0.005 0.061 0.466 6.328-5.492 7.967z"></path>
</symbol>
</defs>
</svg>