<svg width="182" height="59" viewBox="0 0 182 59" fill="none" xmlns="http://www.w3.org/2000/svg">
<path opacity="0.8" fill-rule="evenodd" clip-rule="evenodd" d="M24.6666 0.709459C-0.685305 1.7959 -22.0289 4.83489 -40.3038 9.95994L-44.9776 11.2708L-47.1871 10.6072C-56.9908 7.66236 -70.7668 7.27534 -86.4065 9.50541C-117.635 13.9584 -153.298 30.534 -171.545 49.077C-176.385 53.9956 -177.593 55.5658 -177.877 57.3067L-178 58.0567L-177.635 57.3067C-176.341 54.6476 -167.884 47.1218 -160.706 42.2407C-126.161 18.7531 -80.0931 6.1936 -51.2586 12.4025C-49.8614 12.7032 -49.9857 12.8375 -52.3939 13.6282C-84.2251 24.079 -109.214 44.8951 -102.508 55.374C-100.828 57.999 -96.9384 59.0445 -89.6233 58.8377C-70.6731 58.3016 -54.1186 51.7239 -42.119 39.9619C-33.3069 31.3244 -31.9286 21.1251 -38.741 14.9639L-40.0618 13.7692L-37.1687 13.0014C-21.0586 8.72518 -5.4851 6.42592 18.5169 4.77995C24.2897 4.38411 46.0322 4.19941 50.0019 4.51255C57.0973 5.07227 64.7248 6.41054 71.0119 8.19883C75.027 9.34078 75.0113 9.28433 71.499 9.96368C46.4356 14.8116 31.5683 20.7561 23.6128 29.1103C14.7085 38.4611 18.5262 48.86 31.9153 51.7246C34.34 52.2435 43.6325 52.1824 47.2786 51.6236C64.767 48.9435 84.8677 37.3471 89.7409 27.126C91.8543 22.6931 90.5148 16.1936 86.6772 12.2611C85.6849 11.2442 85.4119 11.3605 90.5386 10.6183C105.952 8.38728 124.748 6.87856 141.984 6.48892C148.848 6.33366 155.013 6.0674 161.663 5.63894C167.314 5.27479 176.518 5.14446 181.531 5.35748C184.994 5.50467 168.451 3.84745 158.825 3.08278C142.638 1.79702 109.476 3.77976 86.1056 7.4306C84.4204 7.69387 82.6767 7.96051 82.2311 8.02351C81.5207 8.12364 81.1655 8.0177 79.36 7.16808C73.1028 4.22379 60.9103 1.54163 50.3061 0.777143C48.0183 0.612133 28.1608 0.559825 24.6666 0.709459ZM81.6653 12.7778C87.2216 16.4249 88.6037 22.8149 84.8885 27.6799C73.3505 42.789 41.9953 53.2872 28.1163 46.6885C19.3048 42.4991 21.1459 34.1897 32.5097 26.8596C41.4621 21.0848 53.2325 17.2918 75.0942 13.1371C80.7693 12.0586 80.5848 12.0687 81.6653 12.7778ZM-42.4495 15.7137C-34.4154 20.5502 -36.0586 31.0707 -46.2109 39.7945C-58.6392 50.4734 -71.5163 55.5193 -87.6364 56.0265C-97.0209 56.3219 -100.125 55.1334 -100.125 51.245C-100.125 41.7041 -78.108 26.0681 -52.725 17.583C-44.2716 14.7572 -44.0927 14.7246 -42.4495 15.7137Z" fill="url(#paint0_linear_692_2862)"/>
<defs>
<linearGradient id="paint0_linear_692_2862" x1="132.134" y1="-61.746" x2="77.7007" y2="69.5461" gradientUnits="userSpaceOnUse">
<stop stop-color="white"/>
<stop offset="1" stop-color="white" stop-opacity="0.6"/>
</linearGradient>
</defs>
</svg>
