<svg width="617" height="109" viewBox="0 0 617 109" fill="none" xmlns="http://www.w3.org/2000/svg">
<path opacity="0.8" fill-rule="evenodd" clip-rule="evenodd" d="M323.748 0.164702C276.495 2.1897 236.713 7.85405 202.65 17.4066L193.939 19.8499L189.821 18.613C171.548 13.1241 145.871 12.4028 116.72 16.5594C58.5128 24.8593 -7.95797 55.7544 -41.968 90.3164C-50.9891 99.4841 -53.2414 102.411 -53.7715 105.656L-54 107.054L-53.3197 105.656C-50.908 100.699 -35.1456 86.6722 -21.765 77.5743C42.6217 33.796 128.488 10.3865 182.232 21.9592C184.836 22.5198 184.604 22.77 180.116 24.2438C120.786 43.7229 74.2095 82.5219 86.7092 102.053C89.84 106.946 97.0898 108.895 110.724 108.509C146.045 107.51 176.901 95.2499 199.267 73.3269C215.692 57.2275 218.261 38.2172 205.563 26.7333L203.102 24.5067L208.494 23.0755C238.521 15.1051 267.549 10.8196 312.286 7.75165C323.046 7.01385 363.571 6.66958 370.97 7.25325C384.195 8.29651 398.412 10.7909 410.131 14.1241C417.614 16.2525 417.585 16.1473 411.038 17.4136C364.323 26.4495 336.612 37.5294 321.784 53.1006C305.187 70.5295 312.303 89.912 337.259 95.2513C341.778 96.2184 359.098 96.1045 365.894 95.063C398.491 90.0676 435.956 68.4531 445.039 49.4022C448.978 41.1397 446.482 29.0253 439.329 21.6956C437.479 19.8003 436.97 20.017 446.526 18.6337C475.255 14.4753 510.288 11.6632 542.415 10.937C555.209 10.6476 566.699 10.1513 579.094 9.3527C589.627 8.67397 606.782 8.43106 616.127 8.82809C622.58 9.10245 591.746 6.01357 573.804 4.58831C543.634 2.19179 481.824 5.88741 438.263 12.6922C435.122 13.1829 431.872 13.6799 431.042 13.7973C429.718 13.9839 429.056 13.7864 425.69 12.2029C414.028 6.71502 391.302 1.71577 371.537 0.290858C367.273 -0.0167014 330.261 -0.114199 323.748 0.164702ZM429.987 22.6588C440.344 29.4566 442.92 41.3669 435.995 50.4346C414.489 78.5963 356.047 98.1637 330.178 85.8645C313.754 78.056 317.186 62.5682 338.367 48.9056C355.053 38.142 376.992 31.0724 417.739 23.3285C428.317 21.3182 427.973 21.337 429.987 22.6588ZM198.651 28.131C213.626 37.1456 210.563 56.7547 191.64 73.0148C168.475 92.9192 144.474 102.324 114.428 103.27C96.9361 103.82 91.1502 101.605 91.1502 94.3573C91.1502 76.5741 132.188 47.4303 179.499 31.6151C195.255 26.3482 195.588 26.2874 198.651 28.131Z" fill="url(#paint0_linear_670_4545)"/>
<defs>
<linearGradient id="paint0_linear_670_4545" x1="524.055" y1="-116.245" x2="422.598" y2="128.469" gradientUnits="userSpaceOnUse">
<stop stop-color="white"/>
<stop offset="1" stop-color="white" stop-opacity="0.6"/>
</linearGradient>
</defs>
</svg>
