<svg width="668" height="192" viewBox="0 0 668 192" fill="none" xmlns="http://www.w3.org/2000/svg">
<g opacity="0.4" clip-path="url(#clip0_670_3817)">
<mask id="mask0_670_3817" style="mask-type:luminance" maskUnits="userSpaceOnUse" x="-258" y="-425" width="926" height="1390">
<path d="M-258 -424.25L-258 964.75L668 964.75L668 -424.25L-258 -424.25Z" fill="white"/>
</mask>
<g mask="url(#mask0_670_3817)">
<path d="M216.649 166.998C232.168 151.478 257.43 151.478 272.968 166.998L259.874 180.092C251.577 171.795 238.058 171.795 229.761 180.092C221.464 188.389 221.464 201.908 229.761 210.205L216.667 223.299C201.147 207.779 201.147 182.518 216.667 166.98L216.649 166.998Z" fill="#9B59B6"/>
<path d="M35.32 176.629L16.8 176.629C16.8 164.887 7.24363 155.331 -4.49805 155.331L-4.49805 136.811C17.4667 136.811 35.3199 154.664 35.32 176.629Z" fill="#F9C82E"/>
<path d="M154.607 113.81L167.7 126.903C159.403 135.2 159.403 148.72 167.7 157.017L154.607 170.11C139.087 154.591 139.087 129.329 154.607 113.791L154.607 113.81Z" fill="#00AC65"/>
<path d="M294.195 -3.8881L307.291 9.20752L341.719 -25.2209L328.624 -38.3165L294.195 -3.8881Z" fill="#F9C82E"/>
<path d="M108.619 10.3959L108.619 25.4897L93.5254 25.4897L93.5254 44.0097L108.619 44.0097L108.619 59.1035L127.139 59.1035L127.139 44.0097L142.214 44.0097L142.214 25.4897L127.139 25.4897L127.139 10.3959L108.619 10.3959Z" fill="#E9662C"/>
<path d="M26.0785 -64.2401L26.0785 -45.7201L-8.44279 -45.7201L-8.44279 -5.14282L-49.8905 -5.14282L-49.8905 35.1382L-98.8574 35.1382L-98.8574 16.6182L-68.4291 16.6182L-68.4105 -23.6628L-26.9628 -23.6628L-26.9628 -64.2401L26.0785 -64.2401Z" fill="#E9662C"/>
<path d="M501.614 151.289C498.612 144.041 490.302 140.599 483.054 143.601C475.806 146.603 472.365 154.913 475.367 162.161C478.369 169.409 486.678 172.85 493.926 169.848C501.174 166.846 504.616 158.537 501.614 151.289Z" fill="#B5292A"/>
<path d="M4.53876 51.0655C9.52064 51.0655 13.558 55.1028 13.558 60.0847C13.558 65.0666 9.52064 69.104 4.53876 69.104C-0.443119 69.104 -4.48047 65.0666 -4.48047 60.0847C-4.48047 55.1028 -0.443119 51.0655 4.53876 51.0655Z" fill="#F9C82E"/>
<path d="M103.14 171.703C108.122 171.703 112.16 175.74 112.16 180.722C112.16 185.704 108.122 189.741 103.14 189.741C98.1584 189.741 94.1211 185.704 94.1211 180.722C94.1211 175.74 98.1584 171.703 103.14 171.703Z" fill="#F9C82E"/>
<path d="M45.1167 -3.14333C45.1167 -8.40068 40.8548 -12.6626 35.5974 -12.6626C30.34 -12.6626 26.0781 -8.40068 26.0781 -3.14333C26.0781 2.11402 30.3401 6.37598 35.5974 6.37598C40.8548 6.37598 45.1167 2.11402 45.1167 -3.14333Z" fill="#9B59B6"/>
<path d="M402.162 99.5509C402.162 94.048 397.701 89.5872 392.198 89.5872C386.695 89.5872 382.234 94.048 382.234 99.5509C382.234 105.054 386.695 109.515 392.198 109.515C397.701 109.515 402.162 105.054 402.162 99.5509Z" fill="#9B59B6"/>
<path d="M275.986 22.0798C280.412 22.0798 284.005 25.6727 284.005 30.099C284.005 34.5253 280.412 38.1182 275.986 38.1182C271.56 38.1182 267.967 34.5253 267.967 30.099C267.967 25.6727 271.56 22.0798 275.986 22.0798Z" fill="#00AC65"/>
<path d="M214.63 60.9746C214.63 55.6558 210.318 51.3441 205 51.3441C199.681 51.3441 195.369 55.6558 195.369 60.9746C195.369 66.2933 199.681 70.605 205 70.605C210.318 70.605 214.63 66.2933 214.63 60.9746Z" fill="#33AEFF"/>
<path d="M37.2281 102.013C41.6544 102.013 45.2473 105.606 45.2473 110.033C45.2473 114.459 41.6544 118.052 37.2281 118.052C32.8019 118.052 29.209 114.459 29.209 110.033C29.209 105.606 32.8019 102.013 37.2281 102.013Z" fill="#33AEFF"/>
</g>
</g>
<defs>
<clipPath id="clip0_670_3817">
<rect width="1389" height="926" fill="white" transform="translate(-258 964.75) rotate(-90)"/>
</clipPath>
</defs>
</svg>
