<svg width="169" height="49" viewBox="0 0 169 49" fill="none" xmlns="http://www.w3.org/2000/svg">
<path d="M145.442 33.4396C144.415 33.4396 143.512 33.5599 142.491 33.6773C133.006 34.7686 123.342 35.3174 113.698 35.5393C86.2545 36.1708 57.3276 33.6869 30.631 29.9733C20.4626 28.5588 -10.6349 19.7772 7.64248 12.5225C14.5639 9.7752 22.5482 8.60052 30.5982 7.68933C46.7618 5.85975 63.2739 4.72644 79.6579 3.92582C105.41 2.6674 135.188 1.48912 159.052 8.81838C167.704 11.4755 170.373 17.8023 161.577 21.5549C151.612 25.8063 138.558 28.1958 127.307 30.8052C99.394 37.2791 70.8182 41.9541 42.1417 46.9883" stroke="#D95043" stroke-width="4" stroke-linecap="round"/>
</svg>
