<svg width="355" height="110" viewBox="0 0 355 110" fill="none" xmlns="http://www.w3.org/2000/svg">
<path d="M306.403 74.976C304.228 74.976 302.319 75.2602 300.16 75.5378C280.098 78.1171 259.656 79.4142 239.258 79.9388C181.211 81.4313 120.026 75.5604 63.5589 66.7827C42.0512 63.4393 -23.7247 42.6828 14.9347 25.5353C29.5745 19.0418 46.4626 16.2653 63.4896 14.1116C97.6779 9.78712 132.604 7.10837 167.258 5.216C221.729 2.24156 284.713 -0.543464 335.189 16.7802C353.488 23.0607 359.134 38.0149 340.53 46.8847C319.453 56.9336 291.842 62.5814 268.044 68.7491C209.003 84.051 148.561 95.101 87.9057 107" stroke="#D95043" stroke-width="6" stroke-linecap="round"/>
</svg>
