<svg width="138" height="15" viewBox="0 0 138 15" fill="none" xmlns="http://www.w3.org/2000/svg">
<path d="M1 6.5C0.447715 6.5 0 6.94772 0 7.5C0 8.05228 0.447715 8.5 1 8.5V6.5ZM137.707 8.20711C138.098 7.81658 138.098 7.18342 137.707 6.79289L131.343 0.428932C130.953 0.0384078 130.319 0.0384078 129.929 0.428932C129.538 0.819457 129.538 1.45262 129.929 1.84315L135.586 7.5L129.929 13.1569C129.538 13.5474 129.538 14.1805 129.929 14.5711C130.319 14.9616 130.953 14.9616 131.343 14.5711L137.707 8.20711ZM1 8.5H137V6.5H1V8.5Z" fill="#D95043"/>
</svg>
